<?xml version="1.0" encoding="UTF-8" standalone="no" ?>
<!DOCTYPE svg PUBLIC "-//W3C//DTD SVG 1.1//EN" "http://www.w3.org/Graphics/SVG/1.1/DTD/svg11.dtd">
<svg xmlns="http://www.w3.org/2000/svg" xmlns:xlink="http://www.w3.org/1999/xlink" version="1.1" width="500" height="500" viewBox="0 0 500 500" xml:space="preserve">
<desc>Created with Fabric.js 5.3.0</desc>
<defs>
</defs>
<g transform="matrix(1.4082622909 0 0 1.4082622909 249.8435024332 250.1564975668)" id="6jmL5aFaBQ-xB4Uoz0B72"  >
<path style="stroke: rgb(39,159,0); stroke-width: 0; stroke-dasharray: none; stroke-linecap: butt; stroke-dashoffset: 0; stroke-linejoin: miter; stroke-miterlimit: 4; fill: rgb(255,255,255); fill-rule: nonzero; opacity: 1;"  transform=" translate(0, 0)" d="M 0 -175.86436 C 97.07713 -175.86436 175.86436 -97.07713000000001 175.86436 0 C 175.86436 97.07713 97.07713000000001 175.86436 0 175.86436 C -97.07713 175.86436 -175.86436 97.07713000000001 -175.86436 0 C -175.86436 -97.07713 -97.07713000000001 -175.86436 0 -175.86436 z" stroke-linecap="round" />
</g>
<g transform="matrix(4.3709140666 0 0 4.3709140666 249.8435024332 250.1564975668)" id="WRb0IFa4y9AFE7Wvy-T6D"  >
<path style="stroke: none; stroke-width: 1; stroke-dasharray: none; stroke-linecap: butt; stroke-dashoffset: 0; stroke-linejoin: miter; stroke-miterlimit: 4; fill: rgb(0,0,0); fill-rule: nonzero; opacity: 1;"  transform=" translate(0, 0)" d="M -11.674 -27.0115 L -11.674 -27.0115 C -9.802 -27.0115 -8.164 -26.5695 -6.76 -25.6855 C -5.356 -24.8015 -4.25533 -23.58817 -3.4579999999999997 -22.0455 C -2.6606699999999996 -20.50283 -2.2619999999999996 -18.72617 -2.2619999999999996 -16.7155 L -2.2619999999999996 -16.7155 C -2.2619999999999996 -13.872829999999999 -2.9379999999999997 -11.394169999999999 -4.289999999999999 -9.279499999999999 C -5.6419999999999995 -7.1648299999999985 -7.539999999999999 -5.526829999999999 -9.983999999999998 -4.365499999999999 C -12.427999999999997 -3.204169999999999 -15.261999999999997 -2.623499999999999 -18.485999999999997 -2.623499999999999 L -18.485999999999997 -2.623499999999999 C -21.155329999999996 -2.623499999999999 -23.512669999999996 -3.204169999999999 -25.557999999999996 -4.365499999999999 C -27.603329999999996 -5.526829999999999 -29.189329999999998 -7.1648299999999985 -30.315999999999995 -9.279499999999999 C -31.442669999999996 -11.394169999999999 -32.00599999999999 -13.8555 -32.00599999999999 -16.6635 L -32.00599999999999 -16.6635 C -32.00599999999999 -19.19417 -31.702669999999994 -21.620829999999998 -31.095999999999993 -23.9435 C -30.489329999999992 -26.26617 -29.622669999999992 -28.4155 -28.49599999999999 -30.3915 C -27.36932999999999 -32.3675 -25.999999999999993 -34.09217 -24.38799999999999 -35.5655 C -22.77599999999999 -37.03883 -20.96466999999999 -38.18283 -18.95399999999999 -38.9975 C -16.94332999999999 -39.81217 -14.75932999999999 -40.219500000000004 -12.40199999999999 -40.219500000000004 L -12.40199999999999 -40.219500000000004 C -9.76732999999999 -40.219500000000004 -7.50532999999999 -39.734170000000006 -5.615999999999991 -38.7635 C -3.7266699999999906 -37.79283 -2.2533299999999907 -36.4495 -1.1959999999999908 -34.7335 C -0.13866999999999075 -33.0175 0.4073300000000091 -31.0155 0.44200000000000905 -28.7275 L 0.44200000000000905 -28.7275 L -10.685999999999991 -28.7275 C -10.78999999999999 -29.31683 -11.03266999999999 -29.845499999999998 -11.41399999999999 -30.313499999999998 C -11.795329999999991 -30.781499999999998 -12.45399999999999 -31.015499999999996 -13.38999999999999 -31.015499999999996 L -13.38999999999999 -31.015499999999996 C -14.32599999999999 -31.015499999999996 -15.14066999999999 -30.738169999999997 -15.833999999999989 -30.183499999999995 C -16.52732999999999 -29.628829999999994 -17.073329999999988 -28.926829999999995 -17.471999999999987 -28.077499999999993 C -17.870669999999986 -27.228169999999995 -18.156669999999988 -26.352829999999994 -18.329999999999988 -25.451499999999992 L -18.329999999999988 -25.451499999999992 C -17.18599999999999 -26.07549999999999 -16.00732999999999 -26.49149999999999 -14.793999999999988 -26.699499999999993 C -13.580669999999987 -26.90749999999999 -12.540669999999988 -27.011499999999995 -11.673999999999989 -27.011499999999995 z M -17.654 -12.2435 L -17.654 -12.2435 C -17.03 -12.2435 -16.47533 -12.408169999999998 -15.99 -12.737499999999999 C -15.50467 -13.06683 -15.132 -13.517499999999998 -14.872 -14.0895 C -14.612 -14.661499999999998 -14.482 -15.29417 -14.482 -15.987499999999999 L -14.482 -15.987499999999999 C -14.482 -17.0275 -14.72467 -17.76417 -15.209999999999999 -18.197499999999998 C -15.695329999999998 -18.63083 -16.302 -18.847499999999997 -17.029999999999998 -18.847499999999997 L -17.029999999999998 -18.847499999999997 C -17.51533 -18.847499999999997 -18.00933 -18.734829999999995 -18.511999999999997 -18.509499999999996 C -19.014669999999995 -18.284169999999996 -19.491329999999998 -17.980829999999997 -19.941999999999997 -17.599499999999995 L -19.941999999999997 -17.599499999999995 C -20.219329999999996 -16.004829999999995 -20.141329999999996 -14.713499999999996 -19.707999999999995 -13.725499999999995 C -19.274669999999993 -12.737499999999995 -18.589999999999996 -12.243499999999996 -17.653999999999996 -12.243499999999996 z M 9.386 -3.2995 L -1.1180000000000003 -3.2995 L 6.63 -39.5955 L 19.578 -39.5955 L 22.022 -17.235500000000002 L 23.477999999999998 -29.195500000000003 L 25.714 -39.5955 L 36.217999999999996 -39.5955 L 28.469999999999995 -3.299500000000002 L 15.053999999999995 -3.299500000000002 L 12.765999999999995 -24.7755 L 11.621999999999995 -13.751500000000002 z M -23.478 39.5955 L -36.218 39.5955 L -25.246000000000002 21.0835 L -28.418000000000003 3.299500000000002 L -16.094 3.299500000000002 L -15.314000000000002 9.851500000000001 L -15.522000000000002 16.5075 L -12.662000000000003 9.903500000000001 L -8.970000000000002 3.299500000000001 L 3.509999999999998 3.299500000000001 L -7.254000000000001 20.875500000000002 L -4.030000000000001 39.5955 L -15.886000000000001 39.5955 L -16.77 34.0835 L -17.394 28.363500000000002 L -20.305999999999997 34.0835 z M 14.066 40.2195 L 14.066 40.2195 C 11.674000000000001 40.2195 9.53333 39.708169999999996 7.644000000000001 38.6855 C 5.754670000000001 37.66283 4.255330000000001 36.18083 3.146000000000001 34.2395 C 2.036670000000001 32.29817 1.4820000000000009 29.9755 1.4820000000000009 27.2715 L 1.4820000000000009 27.2715 C 1.4820000000000009 24.18617 1.8893300000000008 21.178829999999998 2.7040000000000006 18.249499999999998 C 3.5186700000000006 15.320169999999997 4.732000000000001 12.685499999999998 6.344000000000001 10.345499999999998 C 7.956000000000001 8.005499999999998 9.975330000000001 6.1421699999999975 12.402000000000001 4.755499999999998 C 14.82867 3.3688299999999978 17.654 2.6754999999999978 20.878 2.6754999999999978 L 20.878 2.6754999999999978 C 23.30467 2.6754999999999978 25.46267 3.195499999999998 27.352 4.235499999999998 C 29.24133 5.275499999999998 30.74067 6.7574999999999985 31.85 8.681499999999998 C 32.95933 10.605499999999997 33.514 12.9195 33.514 15.623499999999998 L 33.514 15.623499999999998 C 33.514 18.743499999999997 33.10667 21.768169999999998 32.292 24.697499999999998 C 31.477330000000002 27.626829999999998 30.25533 30.261499999999998 28.626 32.6015 C 26.99667 34.941500000000005 24.968670000000003 36.796170000000004 22.542 38.1655 C 20.11533 39.53483 17.290000000000003 40.219500000000004 14.066 40.219500000000004 z M 15.522 30.7555 L 15.522 30.7555 C 16.28467 30.7555 16.978 30.400170000000003 17.602 29.689500000000002 C 18.226 28.978830000000002 18.772 28.051500000000004 19.240000000000002 26.907500000000002 C 19.708000000000002 25.763500000000004 20.098000000000003 24.52417 20.410000000000004 23.189500000000002 C 20.722000000000005 21.854830000000003 20.956000000000003 20.5375 21.112000000000002 19.237500000000004 C 21.268 17.937500000000004 21.346000000000004 16.802170000000004 21.346000000000004 15.831500000000004 L 21.346000000000004 15.831500000000004 C 21.346000000000004 14.583500000000004 21.181330000000003 13.656170000000003 20.852000000000004 13.049500000000004 C 20.522670000000005 12.442830000000004 19.994000000000003 12.139500000000004 19.266000000000005 12.139500000000004 L 19.266000000000005 12.139500000000004 C 18.538000000000004 12.139500000000004 17.870670000000004 12.503500000000004 17.264000000000006 13.231500000000004 C 16.657330000000005 13.959500000000004 16.128670000000007 14.904170000000004 15.678000000000006 16.065500000000004 C 15.227330000000006 17.226830000000003 14.846000000000005 18.492170000000005 14.534000000000006 19.861500000000003 C 14.222000000000007 21.230830000000005 13.988000000000007 22.55683 13.832000000000006 23.839500000000005 C 13.676000000000005 25.122170000000004 13.598000000000006 26.231500000000004 13.598000000000006 27.167500000000004 L 13.598000000000006 27.167500000000004 C 13.598000000000006 28.380830000000003 13.754000000000007 29.282170000000004 14.066000000000006 29.871500000000005 C 14.378000000000005 30.460830000000005 14.863330000000007 30.755500000000005 15.522000000000006 30.755500000000005 z" stroke-linecap="round" />
</g>
<g transform="matrix(0.9205048535 -0.3907311285 0.0764923381 0.1802046556 324.4680851064 342.7526597685)" id="IOvH8iTYuEcq6wgD3t_kP"  >
<path style="stroke: rgb(124,237,155); stroke-width: 0; stroke-dasharray: none; stroke-linecap: butt; stroke-dashoffset: 0; stroke-linejoin: miter; stroke-miterlimit: 4; fill: rgb(0,0,0); fill-rule: nonzero; opacity: 1;"  transform=" translate(0, 0)" d="M -62.83245 -62.83245 L 62.83245 -62.83245 L 62.83245 62.83245 L -62.83245 62.83245 z" stroke-linecap="round" />
</g>
</svg>